<svg class="logo" version="1.1" id="Layer_1" xmlns="http://www.w3.org/2000/svg" xmlns:xlink="http://www.w3.org/1999/xlink" x="0px" y="0px" width="388.9px" height="236.1px" viewBox="0 0 388.9 236.1" enable-background="new 0 0 388.9 236.1" xml:space="preserve">
									<g>
										<ellipse fill="#FFFFFF" cx="162.4" cy="159.6" rx="80.5" ry="76.5"/>
										<g>
											<polygon fill="#F78E1E" points="80.6,115.9 13.5,115.9 17.1,97.5 80.6,97.5 		"/>
											<polygon fill="#F78E1E" points="113.4,82.7 113.4,15.6 95,19.2 95,82.7 		"/>
											<g>
												<polygon points="127.9,4.8 128.1,4.8 132.1,4.8 132.1,0.5 128.1,0.5 122.1,0.5 122.1,22.4 127.9,22.4 			"/>
												<path d="M134.6,20.5c0.3,0.5,0.8,0.9,1.3,1.3c0.2,0.1,0.5,0.3,0.9,0.5c0.9,0.4,1.9,0.6,3.2,0.6c1.2,0,2.3-0.2,3.2-0.6l0.2-0.1
													c0.9-0.5,1.5-1,2-1.7c0.5-0.8,0.9-1.6,1-2.5c0.1-0.9,0.1-2.5,0.1-4.7V9.5c0-2.2-0.1-3.9-0.1-4.7c-0.2-0.9-0.5-1.8-1.1-2.6
													c-0.5-0.6-1.2-1.2-2-1.5c-0.1-0.1-0.2-0.1-0.3-0.2C142.2,0.2,141.2,0,140,0c-1.2,0-2.3,0.2-3.3,0.6c-0.3,0.1-0.6,0.2-0.8,0.5
													c-0.5,0.3-1,0.8-1.4,1.3c-0.5,0.8-0.8,1.6-1,2.5c-0.1,0.9-0.1,2.5-0.1,4.6v3.7c0,2.3,0.1,3.9,0.2,4.8
													C133.7,18.9,134,19.8,134.6,20.5z M139.1,6c0-1.1,0.1-1.8,0.2-2c0.1-0.2,0.4-0.3,0.7-0.3c0.3,0,0.5,0.1,0.7,0.4
													c0.1,0.3,0.2,0.9,0.2,1.9v10.1c0,1.3-0.1,2.2-0.2,2.5c-0.1,0.3-0.4,0.5-0.7,0.5H140c-0.4,0-0.6-0.2-0.7-0.5
													c-0.1-0.3-0.2-1.1-0.2-2.3V6z"/>
												<polygon points="199,22.4 199,4.8 200.7,4.8 200.7,22.4 206.4,22.4 206.4,0.5 193.3,0.5 193.2,0.5 193.2,22.4 193.3,22.4 			"/>
												<path d="M179.1,20.5c0.4,0.5,0.9,0.9,1.4,1.3c0.2,0.1,0.5,0.3,0.8,0.4c0.9,0.4,2,0.6,3.1,0.6c1.3,0,2.3-0.2,3.3-0.6
													c0.9-0.5,1.7-1,2.3-1.8c0.5-0.8,0.8-1.6,1-2.5c0.1-0.9,0.2-2.5,0.2-4.7V9.5c0-2.2-0.1-3.9-0.2-4.7c-0.1-0.9-0.4-1.8-1-2.6
													c-0.5-0.7-1.3-1.3-2.3-1.7c-0.9-0.4-1.9-0.5-3.2-0.5c-1.2,0-2.3,0.2-3.2,0.6c-0.3,0.1-0.5,0.2-0.8,0.4c-0.6,0.3-1.1,0.8-1.5,1.3
													c-0.5,0.8-0.9,1.6-1,2.5c-0.1,0.9-0.2,2.5-0.2,4.6v3.7c0,2.3,0.1,3.9,0.2,4.8C178.2,18.9,178.5,19.8,179.1,20.5z M183.6,6
													c0-1.1,0.1-1.8,0.2-2c0.2-0.2,0.4-0.3,0.6-0.3h0.1c0.3,0,0.5,0.1,0.7,0.4c0.1,0.3,0.2,0.9,0.2,1.9v10.1c0,1.3-0.1,2.2-0.2,2.5
													c-0.2,0.3-0.4,0.5-0.8,0.5c-0.4,0-0.6-0.2-0.7-0.5c-0.1-0.3-0.2-1.1-0.2-2.3V6z"/>
												<polygon points="201.8,56.2 201.8,34.3 196.2,34.3 196.2,42.1 194.5,42.1 194.5,34.3 193.3,34.3 188.7,34.3 188.7,56.2 
													193.3,56.2 194.5,56.2 194.5,47 196.2,47 196.2,56.2 			"/>
												<path d="M179.3,56.2l0.3-3.9h0.9h1.2l0.2,3.9h2.6h3.4l-3.3-21.9h-0.1h-3.9h-4.3l-2.9,21.9H179.3z M180.5,40l0.1-0.8
													c0.3,3.6,0.6,6.7,0.9,9.1h-1h-1C179.7,46.6,180,43.8,180.5,40z"/>
												<path d="M268.4,22.1c0.9-0.2,1.5-0.6,1.9-1.2l0.1-0.1c0.4-0.7,0.6-1.9,0.6-3.6v-4.3c0-1.5-0.2-2.6-0.7-3.3
													c-0.5-0.7-1.1-1.2-2-1.3c-0.9-0.3-2.2-0.3-4-0.3h-0.9V0.5h-5.7v21.9h6.7C266.1,22.4,267.5,22.3,268.4,22.1z M263.3,11.4
													c0.4,0,0.7,0,0.9,0.1c0.3,0.1,0.5,0.2,0.7,0.2c0.2,0.2,0.2,0.8,0.2,1.7v3.2c0,0.9-0.1,1.5-0.4,1.7c-0.1,0.1-0.3,0.1-0.5,0.2
													c-0.2,0.1-0.5,0.1-0.9,0.1V11.4z"/>
												<path d="M135.1,75.2v-3.8c0-1.6,0.2-2.7,0.8-3.3h-5.3c-0.6,0.5-0.9,1.6-0.9,3.2l-0.1,4.3c-0.1,1.1-0.5,1.7-1.5,1.8h-0.2v-9.2
													h-5.7v21.9h5.7v-9.3h0.2c0.5,0.1,0.8,0.2,1.1,0.5c0.3,0.4,0.5,0.8,0.5,1.3v4.4c0,1.5,0.3,2.6,0.9,3.2h5.3
													c-0.5-0.7-0.8-1.9-0.8-3.6v-3.5c0.1-2.3-1.2-3.7-3.8-4C133.8,78.8,135.2,77.5,135.1,75.2z"/>
												<polygon points="168.4,13.2 170.1,13.2 170.1,22.4 175.8,22.4 175.8,0.5 170.1,0.5 170.1,8.3 168.4,8.3 168.4,0.5 162.7,0.5 
													162.7,22.4 168.4,22.4 			"/>
												<polygon points="155.3,56.2 157,56.2 157,34.3 155.3,34.3 152.2,34.3 149,44.2 149,34.3 144.2,34.3 144.2,56.2 149.3,56.2 
													152.2,46.2 152.2,56.2 			"/>
												<path d="M223.6,20.5c0.6,0.8,1.3,1.3,2.3,1.7l0.1,0.1c0.9,0.3,1.9,0.5,3,0.5c1.2,0,2.3-0.2,3.3-0.6c0.9-0.5,1.7-1,2.2-1.8
													c0.6-0.8,0.9-1.6,0.9-2.5c0.2-0.9,0.2-2.5,0.2-4.7V9.5c0-2.2,0-3.9-0.2-4.7c-0.1-0.9-0.4-1.8-1-2.6c-0.5-0.7-1.3-1.3-2.2-1.7
													C231.2,0.2,230.2,0,229,0c-1.1,0-2.1,0.2-3,0.5l-0.2,0.1c-0.9,0.4-1.6,0.9-2.2,1.7c-0.5,0.8-0.9,1.6-1,2.5
													c-0.1,0.9-0.2,2.5-0.2,4.6v3.7c0,2.3,0.1,3.9,0.2,4.8C222.7,18.9,223,19.8,223.6,20.5z M228.1,6c0-1.1,0.1-1.8,0.2-2
													c0.1-0.2,0.4-0.3,0.6-0.3h0.1c0.3,0,0.6,0.1,0.7,0.4c0.1,0.3,0.2,0.9,0.2,1.9v10.1c0,1.3-0.1,2.2-0.2,2.5
													c-0.1,0.3-0.4,0.5-0.8,0.5c-0.4,0-0.6-0.2-0.7-0.5c-0.1-0.3-0.2-1.1-0.2-2.3V6z"/>
												<polygon points="172.4,56.2 172.4,34.3 166.6,34.3 166.6,42.1 164.9,42.1 164.9,34.3 159.3,34.3 159.3,56.2 164.9,56.2 164.9,47 
													166.6,47 166.6,56.2 			"/>
												<path d="M154.5,13.6h0.8h0.6c1.2,0,2.2-0.1,3-0.5c0.8-0.3,1.3-0.9,1.6-1.5c0.3-0.6,0.5-1.6,0.5-3V6.6c0-1.4-0.1-2.4-0.2-3
													c-0.2-0.7-0.5-1.2-0.9-1.7c-0.5-0.5-1.1-0.8-1.9-1.1c-0.6-0.2-1.5-0.3-2.7-0.3h-0.8h-5.8v21.9h5.8V13.6z M154.5,4.2
													c0.3,0,0.6,0,0.8,0.1c0.3,0.1,0.5,0.2,0.6,0.3c0.2,0.1,0.3,0.7,0.3,1.4v1.9c0,0.8-0.1,1.3-0.3,1.6c-0.2,0.1-0.3,0.3-0.6,0.4h-0.5
													h-0.4V4.2z"/>
												<path d="M214.3,13.6h0.9h0.6c1.2,0,2.3-0.1,3-0.5c0.8-0.3,1.3-0.9,1.6-1.5c0.2-0.6,0.4-1.6,0.4-3V6.6c0-1.4-0.1-2.4-0.2-3
													c-0.2-0.7-0.4-1.2-0.9-1.7c-0.4-0.5-1-0.8-1.8-1.1c-0.7-0.2-1.6-0.3-2.7-0.3h-0.9h-5.7v21.9h5.7V13.6z M214.3,4.2
													c0.4,0,0.7,0,0.9,0.1c0.2,0.1,0.5,0.2,0.5,0.3c0.2,0.1,0.4,0.7,0.4,1.4v1.9c0,0.8-0.2,1.3-0.3,1.6c-0.1,0.1-0.4,0.3-0.6,0.4h-0.5
													h-0.5V4.2z"/>
												<polygon points="295.5,18 293.8,18 293.8,0.5 288.1,0.5 288.1,18 286.4,18 286.4,0.5 280.7,0.5 280.7,22.4 301.3,22.4 301.3,0.5 
													295.5,0.5 			"/>
												<rect x="272.9" y="0.5" width="5.7" height="21.9"/>
												<path d="M141.3,50.9c0.6-0.7,1-1.5,1.2-2.3c0.2-0.6,0.2-1.7,0.2-3.1v-0.4c0-1.5-0.1-2.5-0.2-3.1c-0.1-0.9-0.5-1.7-1.2-2.4
													c-0.4-0.3-0.8-0.6-1.2-0.9c-1-0.5-2.4-0.7-4.1-0.7h-0.1c-0.2,0-0.5-0.1-1-0.1v-3.7h-5.7V38c-0.4,0-0.7,0.1-0.9,0.1h-0.2
													c-2.6,0-4.3,0.6-5.3,1.6c-0.6,0.7-1,1.5-1.3,2.4c-0.1,0.6-0.1,1.6-0.1,3.1v0.4c0,1.4,0.1,2.5,0.1,3.1c0.2,0.8,0.6,1.6,1.3,2.3
													c0.9,1.1,2.7,1.6,5.3,1.6h0.2h0.9v3.6h5.7v-3.6h1h0.1c1.7,0,3.1-0.2,4.1-0.7C140.5,51.6,140.9,51.3,141.3,50.9z M129.1,49.2h-0.5
													c-0.2,0-0.4,0-0.5-0.1c-0.1-0.2-0.4-0.3-0.5-0.6c-0.3-0.5-0.5-1.1-0.5-1.8v-2.9c0-0.8,0.2-1.3,0.5-1.8c0.1-0.2,0.4-0.5,0.5-0.6
													c0.2-0.1,0.4-0.1,0.5-0.1h0.5V49.2z M137,46.8c0,0.7-0.2,1.3-0.5,1.8c-0.2,0.2-0.3,0.5-0.5,0.6c-0.2,0.1-0.3,0.1-0.5,0.1h-0.5
													v-7.8h0.5c0.2,0,0.4,0.1,0.5,0.1c0.2,0.2,0.4,0.3,0.5,0.6c0.3,0.5,0.5,1,0.5,1.8V46.8z"/>
												<path d="M255.9,34.3h-4.3l-2.9,21.9h5.9l0.3-3.9h0.9h1.1l0.3,3.9h5.8l-3.3-21.9H255.9z M255.9,48.4h-1c0.2-1.8,0.5-4.6,1-8.4
													l0.1-0.8c0.3,3.6,0.6,6.7,0.9,9.1H255.9z"/>
												<path d="M304.4,16.6c0,1-0.1,1.5-0.4,1.8c-0.3,0.2-0.8,0.2-1.5,0.2v3.8h0.9c1.9,0,3.3-0.2,4.1-0.3c0.8-0.2,1.5-0.6,1.9-1.3
													c0.5-0.7,0.7-1.9,0.7-3.6V4.8h1.6v17.6h5.7V0.5h-13.1V16.6z"/>
												<path d="M384.9,0.5h-2.6c-0.7,0-1.2,0.1-1.6,0.1c-0.9,0.1-1.7,0.3-2.4,0.7c-0.7,0.3-1.2,0.9-1.5,1.7c-0.4,0.8-0.5,2-0.5,3.5
													c0,1.6,0.2,2.7,0.5,3.3c0.4,0.7,1.2,1,2.6,1.2c-0.9,0.2-1.6,0.5-2.1,0.9c-0.5,0.4-0.7,0.9-0.8,1.5c-0.2,0.6-0.2,1.4-0.2,2.5v6.6
													h5.3v-8c0-0.8,0.1-1.3,0.3-1.6c0.2-0.2,0.3-0.2,0.6-0.3c0.2,0,0.5-0.1,0.8-0.1v9.9h5.7V0.5H384.9z M383.1,9.1
													c-0.3,0-0.6,0-0.8-0.1c-0.2-0.1-0.5-0.2-0.6-0.3c-0.2-0.2-0.3-0.8-0.3-1.6V5.9c0-0.7,0.2-1.2,0.4-1.4c0.1-0.1,0.3-0.2,0.5-0.2
													c0.1,0,0.4-0.1,0.6-0.1h0.2V9.1z"/>
												<path d="M367.9,0.5h-4.3l-2.9,21.9h6l0.3-4h0.9h1.1l0.3,4h5.8l-3.3-21.9H367.9z M367.9,14.6h-1c0.1-1.9,0.5-4.7,1-8.5l0.1-0.8
													c0.3,3.7,0.6,6.8,0.9,9.2H367.9z"/>
												<polygon points="338.6,8.3 336.9,8.3 336.9,0.5 331.3,0.5 331.3,22.4 336.9,22.4 336.9,13.2 338.6,13.2 338.6,22.4 344.4,22.4 
													344.4,0.5 338.6,0.5 			"/>
												<polygon points="354.1,8.3 352.4,8.3 352.4,0.5 346.7,0.5 346.7,22.4 352.4,22.4 352.4,13.2 354.1,13.2 354.1,22.4 359.8,22.4 
													359.8,0.5 354.1,0.5 			"/>
												<polygon points="325.5,13.2 329,13.2 329,9 325.5,9 325.5,4.8 329.3,4.8 329.3,0.5 319.7,0.5 319.7,22.4 329.7,22.4 329.7,18 
													325.5,18 			"/>
												<path d="M270.2,34.4c-0.7,0-1.2,0-1.6,0.1c-0.9,0.1-1.7,0.2-2.4,0.6c-0.7,0.4-1.2,0.9-1.5,1.8c-0.2,0.3-0.3,0.7-0.4,1.2
													c-0.1,0.6-0.1,1.4-0.1,2.3c0,0.9,0.1,1.7,0.1,2.3c0.1,0.5,0.2,0.8,0.4,1.1c0.4,0.6,1.2,1,2.6,1.1c-0.9,0.3-1.6,0.6-2.1,1
													c-0.5,0.3-0.7,0.9-0.9,1.4c-0.1,0.6-0.1,1.5-0.1,2.6v6.5h0.1h5.1v-7.9c0-0.9,0.1-1.3,0.3-1.6c0.2-0.1,0.3-0.1,0.5-0.2
													c0.2-0.1,0.5-0.1,0.9-0.1v9.8h5.7V34.3h-4C271.8,34.3,270.9,34.3,270.2,34.4z M271.1,42.9c-0.3,0-0.6,0-0.9-0.1
													c-0.2,0-0.5-0.2-0.5-0.2c-0.2-0.3-0.3-0.8-0.3-1.6v-1.2c0-0.7,0.1-1.2,0.4-1.4c0.1-0.1,0.3-0.2,0.5-0.2c0.2-0.1,0.4-0.1,0.6-0.1
													h0.2V42.9z"/>
												<polygon points="184.5,68.2 180.5,68.2 179.8,68.2 172.1,68.2 172.1,90.1 177.8,90.1 177.8,72.5 179.5,72.5 179.5,90.1 
													180.5,90.1 180.5,90.1 180.5,90.1 184.5,90.1 185.2,90.1 185.2,68.2 			"/>
												<path d="M161.1,78.4l-0.8-5.6c-0.3-1.8-0.5-3.3-0.7-4.6h-4.3h-3.2v21.9h3.2h1.9V75.6l2.1,14.5h3.5l2-14.8v14.8h5V68.2h-7.4
													L161.1,78.4z"/>
												<path d="M244.6,44.4c1.2-0.2,2-0.6,2.4-1.2c0.4-0.5,0.6-1.4,0.6-2.6c0-1.9-0.3-3.3-0.9-4.1c-0.6-0.9-1.3-1.5-2.3-1.7
													c-0.8-0.2-1.8-0.4-3.2-0.4c-0.3-0.1-0.6-0.1-0.9-0.1h-2.3h-3.4v21.9h3.4h3.2c2.3,0,3.8-0.1,4.5-0.4c0.8-0.2,1.3-0.7,1.6-1.5
													c0.4-0.7,0.5-1.8,0.5-3.3v-2c0-1.5-0.2-2.5-0.7-3.2C246.8,45.2,245.9,44.7,244.6,44.4z M242.2,50.4c0,0.9-0.1,1.5-0.3,1.7
													c-0.1,0.1-0.3,0.2-0.6,0.3c-0.2,0-0.5,0.1-0.9,0.1v-6.1c0.4,0,0.7,0,0.9,0.1c0.3,0.1,0.6,0.2,0.7,0.2c0.2,0.2,0.2,0.8,0.2,1.7
													V50.4z M242,42.5c-0.1,0.2-0.3,0.4-0.7,0.4H241c-0.2,0-0.4,0.1-0.6,0.1v-4.9c0.4,0,0.7,0,0.9,0.1h0.3c0.1,0.1,0.3,0.2,0.5,0.6
													c0.2,0.3,0.2,0.8,0.2,1.5C242.2,41.4,242.2,42.3,242,42.5z"/>
												<path d="M148.9,70c-0.6-0.8-1.3-1.4-2.2-1.8c-0.9-0.4-2-0.5-3.2-0.5c-1.2,0-2.3,0.2-3.2,0.6l-0.2,0.1c-0.8,0.4-1.5,0.9-2.1,1.6
													c-0.5,0.8-0.9,1.6-0.9,2.6c-0.2,0.9-0.2,2.5-0.2,4.7V81c0,2.3,0.1,3.8,0.2,4.7c0.1,0.9,0.5,1.7,1,2.5c0.5,0.7,1.2,1.2,2,1.6
													l0.2,0.1c0.9,0.4,2,0.6,3.2,0.6c1.2,0,2.3-0.2,3.3-0.6c0.9-0.4,1.6-1,2.2-1.8c0.5-0.7,0.9-1.6,1-2.5c0.1-0.9,0.2-2.5,0.2-4.6
													v-3.8c0-2.2-0.1-3.8-0.2-4.7C149.8,71.6,149.4,70.8,148.9,70z M144.3,83.9c0,1.2,0,2.1-0.2,2.4c-0.1,0.4-0.3,0.5-0.7,0.5
													c-0.4,0-0.6-0.1-0.8-0.5c-0.1-0.3-0.2-1.1-0.2-2.3V73.8c0-1.2,0.1-1.9,0.2-2.1c0.2-0.2,0.4-0.3,0.7-0.3c0.4,0,0.6,0.2,0.7,0.4
													c0.2,0.3,0.2,0.9,0.2,2V83.9z"/>
												<path d="M193.3,68.2h-4.3l-2.9,21.9h5.9l0.3-3.9h0.9h1.2l0.3,3.9h5.8l-3.2-21.9H193.3z M193.3,82.3h-0.9c0.1-1.9,0.5-4.7,0.9-8.5
													l0.2-0.8c0.2,3.6,0.5,6.8,0.9,9.2H193.3z"/>
												<path d="M240.6,68.2h-2.5c-0.7,0-1.2,0.1-1.7,0.1c-0.9,0.1-1.6,0.3-2.3,0.7c-0.7,0.3-1.2,0.9-1.6,1.8c-0.3,0.8-0.6,1.9-0.6,3.4
													c0,1.6,0.2,2.7,0.6,3.4c0.4,0.6,1.2,0.9,2.6,1.1c-1,0.2-1.7,0.5-2.1,0.9c-0.5,0.4-0.8,0.8-0.9,1.5c-0.2,0.5-0.2,1.4-0.2,2.5v6.6
													h5.4v-8c0-0.8,0.1-1.3,0.3-1.6c0.1-0.2,0.3-0.2,0.5-0.3c0.2,0,0.5-0.1,0.9-0.1v9.9h2.3h3.4V68.2h-3.4H240.6z M239,76.8
													c-0.3,0-0.6,0-0.9-0.1c-0.2-0.1-0.5-0.1-0.5-0.3c-0.2-0.2-0.3-0.8-0.3-1.6v-1.2c0-0.7,0.1-1.2,0.4-1.3c0.1-0.2,0.2-0.2,0.5-0.3
													c0.2,0,0.4-0.1,0.5-0.1h0.3V76.8z"/>
												<path d="M232.6,47.2v-3.7c0-2.3,0-3.9-0.2-4.8c-0.1-0.9-0.5-1.7-1-2.5c-0.5-0.8-1.3-1.3-2.2-1.7l-0.1-0.1c-0.9-0.3-1.9-0.6-3-0.6
													c-1.2,0-2.3,0.3-3.3,0.6c-0.9,0.4-1.6,1-2.2,1.8c-0.5,0.8-0.9,1.6-1,2.5c-0.1,0.9-0.2,2.5-0.2,4.7v3.7c0,2.2,0.1,3.8,0.2,4.7
													c0.2,0.9,0.5,1.8,1,2.5c0.6,0.8,1.3,1.4,2.3,1.8c0.9,0.4,2,0.5,3.2,0.5c1.2,0,2.2-0.2,3-0.5l0.2-0.1c0.9-0.4,1.7-0.9,2.3-1.7
													c0.6-0.8,0.9-1.6,0.9-2.6C232.6,50.9,232.6,49.3,232.6,47.2z M226.9,50c0,1.3-0.1,2.1-0.1,2.5c-0.2,0.3-0.4,0.5-0.8,0.5
													c-0.4,0-0.6-0.1-0.7-0.4c-0.2-0.3-0.2-1.1-0.2-2.4V39.9c0-1.2,0.1-1.8,0.2-2c0.2-0.2,0.3-0.4,0.6-0.4h0.1c0.3,0,0.6,0.1,0.6,0.5
													c0.2,0.2,0.2,0.9,0.2,1.9V50z"/>
												<path d="M217.5,48.3v-0.9h-2.2h-3.5v2.7c0,1.2-0.1,2-0.2,2.3c-0.2,0.3-0.5,0.5-0.9,0.5c-0.5,0-0.7-0.1-0.9-0.5
													c-0.2-0.3-0.2-1-0.2-2.1V40.3c0-1.2,0.1-1.9,0.2-2.2c0.1-0.4,0.4-0.5,0.9-0.5c0.5,0,0.7,0.1,0.9,0.5c0.1,0.2,0.2,0.9,0.2,2v3.9
													h3.5h2.2v-2.1c0-2.1-0.1-3.6-0.5-4.6c-0.3-0.8-0.9-1.6-1.7-2.1c-0.2-0.1-0.3-0.2-0.5-0.3c-1.1-0.6-2.5-1-4.1-1
													c-1.2,0-2.3,0.3-3.3,0.6c-0.9,0.5-1.7,1-2.3,1.8c-0.4,0.7-0.8,1.5-0.9,2.3c-0.1,0.8-0.2,2-0.2,3.6v6.4c0,2.1,0.2,3.7,0.5,4.8
													c0.3,1.1,1.1,1.9,2.1,2.5c1.1,0.6,2.5,0.9,4.2,0.9c1.6,0,2.9-0.3,4-1.1c0.2-0.1,0.2-0.2,0.4-0.2c0.9-0.6,1.5-1.4,1.8-2.3
													C217.4,52.2,217.5,50.6,217.5,48.3z"/>
												<polygon points="209,76 207.3,76 207.3,68.2 201.5,68.2 201.5,90.1 207.3,90.1 207.3,80.9 209,80.9 209,90.1 214.7,90.1 
													214.7,68.2 209,68.2 			"/>
												<polygon points="229,68.2 226,68.2 226,68.4 226,68.2 225,68.2 221.8,78 221.8,68.2 217,68.2 217,90.1 222,90.1 225,80.1 
													225,90.1 225.5,90.1 226,90.1 229,90.1 229.7,90.1 229.7,68.2 			"/>
												<path d="M247.9,0.5l-1.3,10.2l-0.8-5.6c-0.2-1.8-0.5-3.3-0.7-4.7h-3.8h-3.2v0.1l0-0.1h-0.4v21.9h0.4h2.7h0.5h1.4V7.9l2.1,14.5
													h3.6l2-14.8v14.8h5V0.5H247.9z"/>
											</g>
											<g>
												<path d="M211.4,116.1c-11.3-11.3-28.8-18.3-45.9-18.6c-0.4,0-0.8,0-1.2,0l-50.8,0l0-1.9l-0.1,0l0-45.8L95,66.5v9.8l0,0v21.1
													l-30.1,0l-16.7,18.4l46.9,0v43.6h0c0,10.3,2.7,20,7.3,28.6c3,6.1,7,11.7,11.9,16.6c4.4,4.4,10.3,8.1,16.8,11.1
													c9.5,4.8,20.4,7.5,31.9,7.5v-0.1c0.1,0,0.2,0,0.3,0c0.3,0,0.7,0,1.2,0c17.4,0,35.2-7,46.7-18.3c11.6-11.4,18.8-27.2,18.8-44.6
													v-0.1C229.9,143,222.8,127.4,211.4,116.1z M113.4,116l38-0.1c-9.3,2-17.6,6.2-24.1,12c-6.9,6.1-11.8,13.9-13.9,22.6L113.4,116z
													 M155.5,116.6c-1,0.5-1.9,1-2.8,1.7c-4.9,3.5-9.1,9.3-12,16.5c-0.5,1.2-0.9,2.4-1.3,3.6c-4.8-1.8-9.4-4-13.8-6.9
													c0.8-0.9,1.7-1.7,2.6-2.5C135.4,122.5,144.9,118,155.5,116.6z M124.6,132.5c4.6,3,9.4,5.4,14.3,7.2c-1.8,5.9-2.8,12.6-2.9,19.6
													h-22.4C113.8,149.1,117.9,139.8,124.6,132.5z M113.7,160.6H136c0.1,7.3,1.2,14.1,3.1,20.2c-5.1,1.9-10.1,4.4-14.9,7.5
													C117.9,180.8,113.9,171.2,113.7,160.6z M152.9,203.6c-5.7-1.1-11.5-3-16.5-5.5c-3.4-1.9-6.5-4.2-9.3-6.9
													c-0.6-0.6-1.2-1.3-1.8-1.9c4.6-3,9.4-5.4,14.4-7.2c1.2,3.5,2.7,6.8,4.4,9.7c2.5,4.1,5.4,7.4,8.7,9.8c1.4,1,2.9,1.8,4.4,2.4
													C155.7,203.9,154.3,203.8,152.9,203.6z M162.7,203.8c-3.3-0.1-6.4-1.3-9.3-3.4c-4.6-3.3-8.7-8.8-11.5-15.9
													c-0.4-0.9-0.7-1.9-1.1-2.9c7.1-2.4,14.5-3.7,21.9-3.7V203.8z M162.7,176.5c-7.5,0.1-15,1.3-22.3,3.8c-1.9-5.9-2.9-12.6-3-19.7
													h25.3V176.5z M162.7,159.2h-25.3c0.1-6.9,1.1-13.4,2.8-19.1c7.3,2.5,14.9,3.8,22.5,3.9V159.2z M162.7,142.6
													c-7.4-0.1-14.9-1.3-22.1-3.8c1.2-3.7,2.7-7.1,4.5-10c2.4-4,5.2-7.2,8.3-9.4c2.9-2.1,6-3.2,9.3-3.4V142.6z M212.2,159.2h-21.4
													c-0.1-7-1.1-13.7-2.9-19.6c5-1.8,9.7-4.2,14.2-7.2C208.2,139.8,212,149.1,212.2,159.2z M198.6,128.9c0.8,0.7,1.6,1.5,2.4,2.3
													c0.1,0.1,0.1,0.1,0.2,0.2c-4.3,2.8-8.9,5.1-13.7,6.9c-1.2-3.8-2.8-7.2-4.6-10.3c-2.5-4.1-5.4-7.5-8.7-9.8
													c-0.9-0.7-1.9-1.2-2.9-1.7C181.9,118,191.4,122.5,198.6,128.9z M164.1,116c3.3,0.1,6.4,1.3,9.3,3.4c4.6,3.3,8.7,8.8,11.5,15.9
													c0.5,1.1,0.9,2.3,1.3,3.5c-7.1,2.4-14.6,3.7-22.1,3.8V116z M164.1,144c7.7-0.1,15.2-1.4,22.5-3.9c1.8,5.8,2.8,12.3,2.8,19.2
													h-25.3V144z M164.1,160.6h25.3c-0.1,7.1-1.2,13.8-3,19.7c-7.2-2.5-14.7-3.7-22.3-3.8V160.6z M164.1,203.8v-25.9
													c7.4,0.1,14.8,1.3,21.9,3.7c-1.2,3.4-2.6,6.6-4.3,9.4c-2.4,4-5.2,7.2-8.3,9.4C170.5,202.5,167.4,203.6,164.1,203.8z M198.6,190.9
													c-7.2,6.4-16.7,10.9-27.3,12.4c1-0.5,1.9-1.1,2.9-1.7c4.9-3.5,9.1-9.3,12-16.5c0.4-1,0.7-1.9,1.1-2.9c4.7,1.7,9.2,4,13.5,6.7
													C200.1,189.5,199.4,190.2,198.6,190.9z M206.4,181.9c-1.4,2.1-2.9,4-4.7,5.9c-4.4-2.9-9.2-5.2-14.1-7c1.9-6.1,3-12.9,3.1-20.2
													h21.4C212.2,168.3,210.1,175.6,206.4,181.9z"/>
												<polygon points="40.8,97.5 24.1,115.9 38.4,115.9 55.1,97.5 			"/>
												<polygon points="16.7,97.5 0,115.9 14.3,115.9 31.1,97.5 			"/>
											</g>
											<polygon points="113.4,40 113.4,25.7 95,42.4 95,56.8 		"/>
											<polygon points="113.4,1.7 95,18.4 95,32.7 113.4,16 		"/>
										</g>
									</g>
								</svg>