
<svg xmlns="http://www.w3.org/2000/svg" version="1.1">
	<symbol id="num" viewBox="0 0 482.6 482.6" preserveAspectRatio="meet">
		<path d="M98.339,320.8c47.6,56.9,104.9,101.7,170.3,133.4c24.9,11.8,58.2,25.8,95.3,28.2c2.3,0.1,4.5,0.2,6.8,0.2   c24.9,0,44.9-8.6,61.2-26.3c0.1-0.1,0.3-0.3,0.4-0.5c5.8-7,12.4-13.3,19.3-20c4.7-4.5,9.5-9.2,14.1-14   c21.3-22.2,21.3-50.4-0.2-71.9l-60.1-60.1c-10.2-10.6-22.4-16.2-35.2-16.2c-12.8,0-25.1,5.6-35.6,16.1l-35.8,35.8   c-3.3-1.9-6.7-3.6-9.9-5.2c-4-2-7.7-3.9-11-6c-32.6-20.7-62.2-47.7-90.5-82.4c-14.3-18.1-23.9-33.3-30.6-48.8   c9.4-8.5,18.2-17.4,26.7-26.1c3-3.1,6.1-6.2,9.2-9.3c10.8-10.8,16.6-23.3,16.6-36s-5.7-25.2-16.6-36l-29.8-29.8   c-3.5-3.5-6.8-6.9-10.2-10.4c-6.6-6.8-13.5-13.8-20.3-20.1c-10.3-10.1-22.4-15.4-35.2-15.4c-12.7,0-24.9,5.3-35.6,15.5l-37.4,37.4   c-13.6,13.6-21.3,30.1-22.9,49.2c-1.9,23.9,2.5,49.3,13.9,80C32.739,229.6,59.139,273.7,98.339,320.8z M25.739,104.2   c1.2-13.3,6.3-24.4,15.9-34l37.2-37.2c5.8-5.6,12.2-8.5,18.4-8.5c6.1,0,12.3,2.9,18,8.7c6.7,6.2,13,12.7,19.8,19.6   c3.4,3.5,6.9,7,10.4,10.6l29.8,29.8c6.2,6.2,9.4,12.5,9.4,18.7s-3.2,12.5-9.4,18.7c-3.1,3.1-6.2,6.3-9.3,9.4   c-9.3,9.4-18,18.3-27.6,26.8c-0.2,0.2-0.3,0.3-0.5,0.5c-8.3,8.3-7,16.2-5,22.2c0.1,0.3,0.2,0.5,0.3,0.8   c7.7,18.5,18.4,36.1,35.1,57.1c30,37,61.6,65.7,96.4,87.8c4.3,2.8,8.9,5,13.2,7.2c4,2,7.7,3.9,11,6c0.4,0.2,0.7,0.4,1.1,0.6   c3.3,1.7,6.5,2.5,9.7,2.5c8,0,13.2-5.1,14.9-6.8l37.4-37.4c5.8-5.8,12.1-8.9,18.3-8.9c7.6,0,13.8,4.7,17.7,8.9l60.3,60.2   c12,12,11.9,25-0.3,37.7c-4.2,4.5-8.6,8.8-13.3,13.3c-7,6.8-14.3,13.8-20.9,21.7c-11.5,12.4-25.2,18.2-42.9,18.2   c-1.7,0-3.5-0.1-5.2-0.2c-32.8-2.1-63.3-14.9-86.2-25.8c-62.2-30.1-116.8-72.8-162.1-127c-37.3-44.9-62.4-86.7-79-131.5   C28.039,146.4,24.139,124.3,25.739,104.2z"/>
	</symbol>
	<symbol id="searchIcon" x="0px" y="0px" viewBox="0 0 451 451" preserveAspectRatio="meet">
	<path d="M447.05,428l-109.6-109.6c29.4-33.8,47.2-77.9,47.2-126.1C384.65,86.2,298.35,0,192.35,0C86.25,0,0.05,86.3,0.05,192.3
		s86.3,192.3,192.3,192.3c48.2,0,92.3-17.8,126.1-47.2L428.05,447c2.6,2.6,6.1,4,9.5,4s6.9-1.3,9.5-4
		C452.25,441.8,452.25,433.2,447.05,428z M26.95,192.3c0-91.2,74.2-165.3,165.3-165.3c91.2,0,165.3,74.2,165.3,165.3
		s-74.1,165.4-165.3,165.4C101.15,357.7,26.95,283.5,26.95,192.3z"/>
	</symbol>
	<symbol id="vk_logo" x="0px" y="0px" viewBox="0 0 184.313 184.313" style="enable-background:new 0 0 184.313 184.313;" xml:space="preserve">
		<path d="M180.323,147.777l-53.048-45.373l55.314-66.784c2.642-3.191,2.197-7.918-0.992-10.56c-3.19-2.643-7.918-2.199-10.561,0.992
			l-60.022,72.469c-0.304,0.366-0.562,0.754-0.784,1.156V30.836c0-4.142-3.357-7.5-7.5-7.5h-9.521c-4.143,0-7.5,3.358-7.5,7.5
			s3.357,7.5,7.5,7.5h2.021v93.253L13.424,26.236c-2.541-3.272-7.253-3.864-10.524-1.324c-3.272,2.54-3.864,7.252-1.324,10.523
			l95.229,122.641c1.448,1.866,3.652,2.901,5.925,2.901c0.812,0,1.633-0.132,2.431-0.405c3.031-1.039,5.068-3.89,5.068-7.095v-46.55
			c0.423,0.767,0.981,1.476,1.686,2.079l58.658,50.171c1.413,1.209,3.146,1.8,4.871,1.8c2.116,0,4.22-0.891,5.703-2.625
			C183.84,155.204,183.471,150.469,180.323,147.777z"/>
	</symbol>
	<symbol id="fb_logo" x="0px" y="0px" viewBox="0 0 159.822 159.822" style="enable-background:new 0 0 159.822 159.822;" xml:space="preserve">
		 <path d="M76.715,36.172c4.142,0,7.5-3.358,7.5-7.5C84.215,21.133,90.349,15,97.887,15h21.179c4.142,0,7.5-3.358,7.5-7.5
		s-3.358-7.5-7.5-7.5H97.887c-15.81,0-28.672,12.862-28.672,28.672C69.215,32.813,72.573,36.172,76.715,36.172z"/>
		<path d="M117.458,59.627H40.756c-4.142,0-7.5,3.358-7.5,7.5s3.358,7.5,7.5,7.5h28.46v77.695c0,4.142,3.358,7.5,7.5,7.5
		c4.142,0,7.5-3.358,7.5-7.5V74.627h33.243c4.142,0,7.5-3.358,7.5-7.5S121.6,59.627,117.458,59.627z"/>
	</symbol>
	<symbol id="pocket_logo" x="0px" y="0px"  viewBox="0 0 512 512">
		<g>
			<g>
				<path d="M444.254,23.532H67.746C30.391,23.532,0,53.923,0,91.278v141.191c0,68.38,26.629,132.667,74.981,181.019
					C123.332,461.84,187.62,488.468,256,488.468s132.667-26.629,181.019-74.981C485.371,365.136,512,300.848,512,232.468V91.278
					C512,53.923,481.61,23.532,444.254,23.532z M470.636,232.468c0,118.35-96.285,214.636-214.636,214.636
					S41.364,350.818,41.364,232.468V91.278c0-14.547,11.835-26.381,26.381-26.381h376.508c14.547,0,26.381,11.835,26.381,26.381
					V232.468z"/>
			</g>
	</g>
		<g>
			<g>
				<path d="M364.752,194.311c-8.077-8.077-21.172-8.077-29.249,0L256,273.813l-79.502-79.502c-8.077-8.077-21.173-8.076-29.249,0
					c-8.077,8.077-8.077,21.172,0,29.249l94.127,94.128c3.879,3.879,9.14,6.058,14.625,6.058c5.486,0,10.746-2.179,14.625-6.058
					l94.127-94.129C372.828,215.483,372.828,202.388,364.752,194.311z"/>
			</g>
		</g>
	</symbol>
	<symbol id="classmates_logo" x="0px" y="0px" viewBox="0 0 512 512" >
		<g>
			<g>
				<path d="M256.016,0c-70.592,0-128,57.408-128,128s57.408,128,128,128s128-57.408,128-128S326.608,0,256.016,0z M256.016,224
					c-52.928,0-96-43.072-96-96c0-52.928,43.072-96,96-96c52.928,0,96,43.072,96,96S308.944,224,256.016,224z"/>
			</g>
		</g>
		<g>
			<g>
				<path d="M381.136,486.816l-112-160c-5.952-8.512-20.192-8.512-26.208,0l-112,160c-5.056,7.232-3.328,17.216,3.936,22.272
					c7.232,5.088,17.216,3.328,22.272-3.904l98.88-141.28l98.912,141.28c3.104,4.448,8.064,6.816,13.088,6.816
					c3.2,0,6.368-0.928,9.216-2.912C384.464,504.032,386.224,494.08,381.136,486.816z"/>
			</g>
		</g>
		<g>
			<g>
				<path d="M414.384,263.744c-6.24-6.24-16.384-6.24-22.624,0c-74.912,74.88-196.672,74.88-271.52,0c-6.24-6.24-16.384-6.24-22.624,0
					s-6.24,16.384,0,22.624c43.68,43.648,101.056,65.504,158.4,65.504s114.72-21.856,158.368-65.504
					C420.624,280.128,420.624,269.984,414.384,263.744z"/>
			</g>
		</g>
	</symbol>
	<symbol id="telegram_logo" x="0px" y="0px" viewBox="1 -35 511.99993 511">
		<path d="m121.453125 253.171875 63.554687 158.886719 82.75-82.753906 141.535157 112.503906 102.707031-441.308594-512 205.480469zm-39.933594-47.640625 244.046875-97.945312-194.074218 117.363281zm287.535157-89.25-161.980469 148.1875-19.484375 73.425781-36.035156-90.085937zm-149.851563 219.230469 9.816406-36.996094 15.144531 12.035156zm171.65625 53.394531-147.386719-117.152344 221.902344-203.007812zm0 0"/>
	</symbol>
	<symbol id="viber_logo" x="0px" y="0px"  viewBox="0 0 52.511 52.511">
		<g>
		<path d="M31.256,0H21.254C10.778,0,2.255,8.521,2.255,18.995v9.01c0,7.8,4.793,14.81,12,17.665v5.841
			c0,0.396,0.233,0.754,0.595,0.914c0.13,0.058,0.268,0.086,0.405,0.086c0.243,0,0.484-0.089,0.671-0.259L21.725,47h9.531
			c10.476,0,18.999-8.521,18.999-18.995v-9.01C50.255,8.521,41.732,0,31.256,0z M48.255,28.005C48.255,37.376,40.63,45,31.256,45
			h-9.917c-0.248,0-0.487,0.092-0.671,0.259l-4.413,3.997v-4.279c0-0.424-0.267-0.802-0.667-0.942
			C8.81,41.638,4.255,35.196,4.255,28.005v-9.01C4.255,9.624,11.881,2,21.254,2h10.002c9.374,0,16.999,7.624,16.999,16.995V28.005z"
			/>
		<path d="M39.471,30.493l-6.146-3.992c-0.672-0.437-1.472-0.585-2.255-0.423c-0.784,0.165-1.458,0.628-1.895,1.303l-0.289,0.444
			c-2.66-0.879-5.593-2.002-7.349-7.085l0.727-0.632h0c1.248-1.085,1.379-2.983,0.294-4.233l-4.808-5.531
			c-0.362-0.417-0.994-0.46-1.411-0.099l-3.019,2.624c-2.648,2.302-1.411,5.707-1.004,6.826c0.018,0.05,0.04,0.098,0.066,0.145
			c0.105,0.188,2.612,4.662,6.661,8.786c4.065,4.141,11.404,7.965,11.629,8.076c0.838,0.544,1.781,0.805,2.714,0.805
			c1.638,0,3.244-0.803,4.202-2.275l2.178-3.354C40.066,31.413,39.934,30.794,39.471,30.493z M35.91,34.142
			c-0.901,1.388-2.763,1.782-4.233,0.834c-0.073-0.038-7.364-3.835-11.207-7.75c-3.592-3.659-5.977-7.724-6.302-8.291
			c-0.792-2.221-0.652-3.586,0.464-4.556l2.265-1.968l4.152,4.776c0.369,0.424,0.326,1.044-0.096,1.411l-1.227,1.066
			c-0.299,0.26-0.417,0.671-0.3,1.049c2.092,6.798,6.16,8.133,9.13,9.108l0.433,0.143c0.433,0.146,0.907-0.021,1.155-0.403
			l0.709-1.092c0.146-0.226,0.37-0.379,0.63-0.434c0.261-0.056,0.527-0.004,0.753,0.143l5.308,3.447L35.91,34.142z"/>
		<path d="M28.538,16.247c-0.532-0.153-1.085,0.156-1.236,0.688c-0.151,0.531,0.157,1.084,0.688,1.235
			c1.49,0.424,2.677,1.613,3.097,3.104c0.124,0.44,0.525,0.729,0.962,0.729c0.09,0,0.181-0.012,0.272-0.037
			c0.531-0.15,0.841-0.702,0.691-1.234C32.405,18.578,30.69,16.859,28.538,16.247z"/>
		<path d="M36.148,22.219c0.09,0,0.181-0.012,0.272-0.037c0.532-0.15,0.841-0.703,0.691-1.234c-1.18-4.183-4.509-7.519-8.689-8.709
			c-0.531-0.153-1.084,0.158-1.235,0.689c-0.151,0.531,0.157,1.084,0.688,1.235c3.517,1,6.318,3.809,7.311,7.328
			C35.311,21.931,35.711,22.219,36.148,22.219z"/>
		<path d="M27.991,7.582c-0.532-0.153-1.085,0.156-1.236,0.689c-0.151,0.531,0.157,1.084,0.688,1.235
			c5.959,1.695,10.706,6.453,12.388,12.416c0.124,0.44,0.525,0.729,0.962,0.729c0.09,0,0.181-0.012,0.272-0.037
			c0.531-0.15,0.841-0.703,0.691-1.234C39.887,14.753,34.613,9.467,27.991,7.582z"/>
	</g>
	</symbol>
	<symbol id="wApp_logo"  x="0px" y="0px"  viewBox="0 0 512 512">
		<g>
			<path d="M440.164,71.836C393.84,25.511,332.249,0,266.737,0S139.633,25.511,93.308,71.836S21.473,179.751,21.473,245.263
					c0,41.499,10.505,82.279,30.445,118.402L0,512l148.333-51.917c36.124,19.938,76.904,30.444,118.403,30.444
					c65.512,0,127.104-25.512,173.427-71.836C486.488,372.367,512,310.776,512,245.263S486.488,118.16,440.164,71.836z
					 M266.737,460.495c-38.497,0-76.282-10.296-109.267-29.776l-6.009-3.549L48.952,463.047l35.878-102.508l-3.549-6.009
					c-19.479-32.985-29.775-70.769-29.775-109.266c0-118.679,96.553-215.231,215.231-215.231s215.231,96.553,215.231,215.231
					C481.968,363.943,385.415,460.495,266.737,460.495z"/>
		</g>
		<g>
			<path d="M398.601,304.521l-35.392-35.393c-11.709-11.71-30.762-11.71-42.473,0l-13.538,13.538
					c-32.877-17.834-60.031-44.988-77.866-77.865l13.538-13.539c5.673-5.672,8.796-13.214,8.796-21.236
					c0-8.022-3.124-15.564-8.796-21.236l-35.393-35.393c-5.672-5.672-13.214-8.796-21.236-8.796c-8.023,0-15.564,3.124-21.236,8.796
					l-28.314,28.314c-15.98,15.98-16.732,43.563-2.117,77.664c12.768,29.791,36.145,62.543,65.825,92.223
					c29.68,29.68,62.432,53.057,92.223,65.825c16.254,6.965,31.022,10.44,43.763,10.44c13.992,0,25.538-4.193,33.901-12.557
					l28.314-28.314c5.673-5.672,8.796-13.214,8.796-21.236S404.273,310.193,398.601,304.521z M349.052,354.072
					c-6.321,6.32-23.827,4.651-44.599-4.252c-26.362-11.298-55.775-32.414-82.818-59.457c-27.043-27.043-48.158-56.455-59.457-82.818
					c-8.903-20.772-10.571-38.278-4.252-44.599l28.315-28.314l35.393,35.393l-28.719,28.719l4.53,9.563
					c22.022,46.49,59.753,84.221,106.244,106.244l9.563,4.53l28.719-28.719l35.393,35.393L349.052,354.072z"/>
		</g>
	</symbol>
	<symbol id="upArrow" x="0px" y="0px"
	 width="226px" height="226px" viewBox="0 0 226 226" enable-background="new 0 0 113.386 113.386"
	 xml:space="preserve">
		<path fill-rule="evenodd" clip-rule="evenodd" fill="#264550" d="M75.985,89.041h-6.268v23.889l0.029,0.029h15.987V79.273
		c0,2.55-0.991,4.828-2.969,6.787C80.786,88.053,78.528,89.041,75.985,89.041z"/>
	<rect x="69.718" y="50.281" fill-rule="evenodd" clip-rule="evenodd" fill="#264550" width="7.961" height="33.153"/>
	<path fill-rule="evenodd" clip-rule="evenodd" fill="#264550" d="M69.747,0.426L56.692,13.48L43.633,0.426H27.651v23.836H40.55
		L27.651,37.168v6.101L40.55,30.365v58.758H27.651v23.836h15.981l13.06-13.06l5.229,5.234V54.269c0-2.476,0.921-4.712,2.792-6.692
		c1.924-2.037,4.128-3.06,6.609-3.06h4.662c2.479,0,4.709,1.074,6.694,3.229c2.034,2.153,3.055,4.432,3.055,6.866V0.426H69.747z
		 M69.718,37.657l-7.796,7.79V29.94h-7.965v59.183h-8.302V24.262h24.063V37.657z"/>
	</symbol>
	<symbol id="upLogo" width="40px" height="45px" viewBox="45 250 240 240">	
		<g>
	<path fill-rule="evenodd" clip-rule="evenodd" fill="#264550" d="M184.14,254.72l-20.664-20.664l-8.559-8.559l-8.559,8.558
		l-20.665,20.665H44.737v191.137h220.36V254.72H184.14z"/>
	<g>
		<path fill-rule="evenodd" clip-rule="evenodd" fill="#FFFFFF" d="M179.126,266.824l-24.209-24.209v-0.001l-24.21,24.21H56.841
			v166.93h94.086v-12.104h-81.98v-142.72h66.773l19.194-19.195l0.002-0.001v0.003l19.192,19.193h66.778v142.72H173.91v-24.19h9.138
			c3.71,0,7.001-1.441,9.888-4.345c2.884-2.857,4.329-6.179,4.329-9.896v-35.964c0-3.55-1.488-6.872-4.454-10.012
			c-2.895-3.141-6.147-4.707-9.763-4.707h-6.797c-3.619,0-6.833,1.491-9.639,4.462c-2.729,2.887-4.07,6.148-4.07,9.758
			l-0.001,74.895l11.369,12.104h79.084v-166.93H179.126z M173.91,340.939h11.608v48.345H173.91V340.939z"/>
		<polygon fill-rule="evenodd" clip-rule="evenodd" fill="#FFFFFF" points="112.569,302.999 112.569,321.819 131.375,302.999 		"/>
		<polygon fill-rule="evenodd" clip-rule="evenodd" fill="#FFFFFF" points="112.569,397.58 131.375,397.58 131.375,311.899 
			112.569,330.714 		"/>
		<polygon fill-rule="evenodd" clip-rule="evenodd" fill="#FFFFFF" points="162.542,333.892 173.91,322.533 173.91,302.999 
			138.821,302.999 138.821,397.58 150.927,397.58 150.927,324.709 150.927,311.279 162.542,311.279 		"/>
	</g>
</g>
			
	</symbol>
	<symbol id="close" viewBox="0 0 357 357"  x="0px" y="0px">
		<polygon points="357,35.7 321.3,0 178.5,142.8 35.7,0 0,35.7 142.8,178.5 0,321.3 35.7,357 178.5,214.2 321.3,357 357,321.3 214.2,178.5"/>
	</symbol>
</svg>
